<svg width="16" height="16" viewBox="0 0 16 16" fill="none" xmlns="http://www.w3.org/2000/svg">
<path d="M3.00205 10.674L8.00005 5.80197L12.998 10.674C13.0873 10.7612 13.2072 10.81 13.332 10.81C13.4569 10.81 13.5768 10.7612 13.666 10.674C13.7093 10.6316 13.7436 10.581 13.7671 10.5252C13.7905 10.4694 13.8026 10.4095 13.8026 10.349C13.8026 10.2884 13.7905 10.2285 13.7671 10.1727C13.7436 10.1169 13.7093 10.0663 13.666 10.024L8.34905 4.83997C8.25567 4.74896 8.13044 4.69802 8.00005 4.69802C7.86965 4.69802 7.74442 4.74896 7.65105 4.83997L2.33405 10.023C2.2905 10.0654 2.25589 10.1161 2.23226 10.172C2.20863 10.228 2.19646 10.2882 2.19646 10.349C2.19646 10.4097 2.20863 10.4699 2.23226 10.5259C2.25589 10.5819 2.2905 10.6326 2.33405 10.675C2.42334 10.7622 2.54322 10.811 2.66805 10.811C2.79288 10.811 2.91275 10.7622 3.00205 10.675V10.674Z" fill="white"/>
</svg>
