<svg width="16" height="16" viewBox="0 0 16 16" fill="none" xmlns="http://www.w3.org/2000/svg">
<path d="M3.00205 5.32603L8.00005 10.198L12.998 5.32603C13.0873 5.2388 13.2072 5.18996 13.332 5.18996C13.4569 5.18996 13.5768 5.2388 13.666 5.32603C13.7093 5.36839 13.7436 5.41896 13.7671 5.47477C13.7905 5.53057 13.8026 5.5905 13.8026 5.65103C13.8026 5.71156 13.7905 5.77149 13.7671 5.82729C13.7436 5.8831 13.7093 5.93367 13.666 5.97603L8.34905 11.16C8.25567 11.251 8.13044 11.302 8.00005 11.302C7.86965 11.302 7.74442 11.251 7.65105 11.16L2.33405 5.97703C2.2905 5.93463 2.25589 5.88394 2.23226 5.82795C2.20863 5.77196 2.19646 5.7118 2.19646 5.65103C2.19646 5.59026 2.20863 5.5301 2.23226 5.47411C2.25589 5.41812 2.2905 5.36743 2.33405 5.32503C2.42334 5.2378 2.54322 5.18896 2.66805 5.18896C2.79288 5.18896 2.91275 5.2378 3.00205 5.32503V5.32603Z" fill="white"/>
</svg>
