<svg width="18" height="18" viewBox="0 0 18 18" fill="none" xmlns="http://www.w3.org/2000/svg">
<path d="M15.3652 12.8552L12.3165 10.0832C12.1724 9.95202 11.983 9.88204 11.7883 9.88806C11.5936 9.89408 11.4089 9.97562 11.2732 10.1154L9.47847 11.9612C9.04647 11.8787 8.17797 11.6079 7.28397 10.7162C6.38997 9.82143 6.11922 8.95068 6.03897 8.52168L7.88322 6.72618C8.02303 6.59053 8.10457 6.4058 8.11059 6.21108C8.11661 6.01637 8.04663 5.82696 7.91547 5.68293L5.14422 2.63493C5.013 2.49045 4.83063 2.40281 4.63583 2.39062C4.44104 2.37844 4.24917 2.44267 4.10097 2.56968L2.47347 3.96543C2.3438 4.09557 2.26641 4.26877 2.25597 4.45218C2.24472 4.63968 2.03022 9.08118 5.47422 12.5267C8.47872 15.5304 12.2422 15.7502 13.2787 15.7502C13.4302 15.7502 13.5232 15.7457 13.548 15.7442C13.7312 15.7334 13.9041 15.6557 14.034 15.5259L15.429 13.8977C15.5565 13.75 15.6212 13.5582 15.6093 13.3635C15.5974 13.1687 15.5098 12.9863 15.3652 12.8552Z" fill="#487665"/>
</svg>
