<svg width="16" height="16" viewBox="0 0 16 16" fill="none" xmlns="http://www.w3.org/2000/svg">
<g clip-path="url(#clip0_16051_135)">
<path fill-rule="evenodd" clip-rule="evenodd" d="M7.99997 0.833332C11.958 0.833332 15.1666 4.042 15.1666 8C15.1666 11.958 11.958 15.1667 7.99997 15.1667C6.75997 15.1667 5.5933 14.8513 4.5753 14.2967L1.4153 14.8267C1.33742 14.8397 1.25756 14.834 1.18227 14.8102C1.10698 14.7864 1.0384 14.7451 0.982141 14.6897C0.925884 14.6343 0.883551 14.5663 0.858608 14.4914C0.833665 14.4165 0.826821 14.3367 0.838637 14.2587L1.37197 10.732C1.01469 9.86556 0.831645 8.93721 0.833304 8C0.833304 4.042 4.04197 0.833332 7.99997 0.833332ZM5.2953 4.46667C4.8053 4.46667 4.3993 4.88 4.4753 5.39067C4.6193 6.348 5.04464 8.112 6.30997 9.38666C7.63264 10.7193 9.5253 11.2893 10.55 11.514C11.0806 11.6307 11.5333 11.2107 11.5333 10.6927V9.47666C11.5333 9.43626 11.5211 9.3968 11.4983 9.36348C11.4754 9.33016 11.443 9.30454 11.4053 9.29L10.0986 8.788C10.0634 8.7745 10.025 8.77127 9.98797 8.77867L8.66997 9.036C7.81997 8.596 7.3053 8.10266 6.99664 7.35933L7.24464 6.016C7.25128 5.98026 7.24805 5.94338 7.2353 5.90933L6.7453 4.59667C6.73108 4.5586 6.7056 4.52577 6.67225 4.50254C6.63891 4.47932 6.59928 4.4668 6.55864 4.46667H5.2953Z" fill="#fff"/>
</g>
<defs>
<clipPath id="clip0_16051_135">
<rect width="16" height="16" fill="white"/>
</clipPath>
</defs>
</svg>
